<?xml version="1.0" encoding="UTF-8"?>
<svg id="idea_pose" data-name="idea pose" xmlns="http://www.w3.org/2000/svg" viewBox="0 0 817.2 923.94">
  <defs>
    <style>
      .cls-1, .cls-2 {
        opacity: .6;
      }

      .cls-1, .cls-3 {
        fill: none;
      }

      .cls-4 {
        opacity: .1;
      }

      .cls-5 {
        fill: #eaa824;
      }

      .cls-6 {
        fill: #fff;
      }

      .cls-7 {
        fill: #ffe388;
      }

      .cls-8 {
        fill: #ffd961;
      }

      .cls-9 {
        fill: #ffc639;
      }

      .cls-10 {
        fill: #ff7b00;
      }

      .cls-11 {
        fill: #fcde6d;
      }

      .cls-12 {
        fill: #7d7d7d;
      }

      .cls-13 {
        fill: #994500;
      }

      .cls-14 {
        fill: #b24e00;
      }

      .cls-15 {
        fill: #b1b1b1;
      }

      .cls-16 {
        fill: #ccc;
      }

      .cls-17, .cls-2 {
        fill: #3a200a;
      }

      .cls-18, .cls-19 {
        fill: #ffff8d;
      }

      .cls-18, .cls-3 {
        opacity: .15;
      }

      .cls-19 {
        opacity: .16;
      }

      .cls-20 {
        fill: #fff8e3;
        opacity: .79;
      }
    </style>
  </defs>
  <g id="light_bulb" data-name="light bulb">
    <circle class="cls-18" cx="633.44" cy="183.76" r="183.76"/>
    <circle class="cls-18" cx="630.64" cy="183.76" r="137.17"/>
    <circle class="cls-18" cx="628.81" cy="179.91" r="101.25"/>
    <circle class="cls-19" cx="630.64" cy="181.44" r="78.41"/>
    <circle class="cls-18" cx="630.3" cy="181.44" r="67.56"/>
    <path class="cls-7" d="m690,181.47c0,17.52-7.36,33.28-19.11,44.29h-.01s-.03.03-.04.04c-1.62,1.2-3.06,2.44-4.34,3.7-10.43,10.24-10.41,21.96-10,26.16.1,1.03.21,1.61.21,1.61,0,1.78-.73,3.4-1.91,4.57-1.17,1.17-2.78,1.89-4.56,1.89h-38.14c-3.55,0-6.47-2.91-6.47-6.47,0-.34.03-.7.09-1.03h-.09c1.77-7.05-2.22-15.74-5.71-21.58-.95-1.61-2.21-3.05-3.73-4.14-7.16-5.18-13.13-11.95-17.43-19.8-4.76-8.66-7.46-18.64-7.46-29.27,0-33.27,26.58-60.26,59.36-60.26,11.08,0,21.45,3.09,30.32,8.46,17.39,10.51,29.02,29.78,29.02,51.8Z"/>
    <path class="cls-11" d="m670.83,225.81c-1.38,1.31-2.83,2.54-4.34,3.7,1.28-1.27,2.72-2.51,4.34-3.7Z"/>
    <path class="cls-11" d="m656.7,257.28s-.11-.58-.21-1.61c.14.51.21,1.05.21,1.61Z"/>
    <path class="cls-15" d="m653.74,282.23c-.68.68-1.55,1.18-2.54,1.4,1.78.78,3.03,2.56,3.03,4.61,0,1.38-.57,2.63-1.48,3.55-.91.91-2.16,1.47-3.55,1.47h-2.62c.13.57.19,1.15.19,1.75,0,6.17-6.57,11.17-14.68,11.17-4.13,0-7.88-1.3-10.54-3.4-2.56-2.01-4.14-4.74-4.14-7.76,0-.6.06-1.18.19-1.75h-1.81c-2.76,0-5.01-2.25-5.01-5.01,0-1.38.57-2.63,1.47-3.55.44-.44.97-.81,1.55-1.07-2.34-.54-4.07-2.63-4.07-5.11,0-1.45.6-2.76,1.54-3.72.57-.57,1.28-1.01,2.08-1.27-.23-.07-.46-.16-.66-.27h-.01c-1.74-.85-2.95-2.65-2.95-4.71,0-1.45.6-2.76,1.54-3.72.95-.95,2.28-1.54,3.72-1.54h35.05c.54,0,1.07.09,1.57.24.01.01.04.01.06.01,2.09.68,3.63,2.68,3.63,5,0,1.45-.58,2.76-1.54,3.72-.57.57-1.28,1.01-2.07,1.27,2.08.68,3.6,2.66,3.6,4.98,0,1.45-.58,2.76-1.54,3.72Z"/>
    <path class="cls-12" d="m653.74,282.23c-.68.68-1.55,1.18-2.54,1.4,1.78.78,3.03,2.56,3.03,4.61,0,1.38-.57,2.63-1.48,3.55-.91.91-2.16,1.47-3.55,1.47h-2.62c.13.57.19,1.15.19,1.75,0,6.17-6.57,11.17-14.68,11.17-4.13,0-7.88-1.3-10.54-3.4.38.07.85.19,1.41.34,10.95,3.03,22.07-9.02,22.07-9.02l-29.11-1.4c3.99.16,23.81.85,30.85-.73,7.83-1.78,4.24-6.89,4.24-6.89l-37.16-1.85h36.3c6.58-6.92,1.44-8.76,1.44-8.76l-38.92-1.21c.84.01,35.85.67,39.93-2.99,4.13-3.72-1.68-6.82-1.68-6.82.23.03.44.06.66.09.01.01.04.01.06.01,2.09.68,3.63,2.68,3.63,5,0,1.45-.58,2.76-1.54,3.72-.57.57-1.28,1.01-2.07,1.27,2.08.68,3.6,2.66,3.6,4.98,0,1.45-.58,2.76-1.54,3.72Z"/>
    <path class="cls-8" d="m690,181.47c0,17.52-7.36,33.28-19.11,44.29h-.01s-.03.03-.04.04c-1.62,1.2-3.06,2.44-4.34,3.7-10.43,10.24-10.41,21.96-10,26.16.1,1.03.21,1.61.21,1.61,0,1.78-.73,3.4-1.91,4.57-1.17,1.17-2.78,1.89-4.56,1.89h-38.14c-3.55,0-6.47-2.91-6.47-6.47,0-.34.03-.7.09-1.03h-.09c.19-.77.31-1.54.37-2.34.54-6.55-2.96-14.03-6.08-19.24-.95-1.61-2.21-3.05-3.73-4.14-7.16-5.18-13.13-11.95-17.43-19.8,17.28,14.03,45.76,26.99,77.95.66,36.06-29.51,14.5-67.51,4.27-81.72,7.53,4.54,13.97,10.74,18.86,18.07,6.42,9.63,10.17,21.23,10.17,33.72Z"/>
    <path class="cls-9" d="m690,181.47c0,17.52-7.36,33.28-19.11,44.29h-.01s-.03.03-.04.04c-1.62,1.2-3.06,2.44-4.34,3.7-10.43,10.24-10.41,21.96-10,26.16.1,1.03.21,1.61.21,1.61,0,1.78-.73,3.4-1.91,4.57-1.17,1.17-2.78,1.89-4.56,1.89h-38.14c-3.55,0-6.47-2.91-6.47-6.47,0-.34.03-.7.09-1.03h-.09c.19-.77.31-1.54.37-2.34,12.46.64,37.84,1.68,40.77-.38,3.92-2.76,1.21-5.13,2.79-16.93,1.57-11.82,8.54-13.99,12.99-16.93,30.91-20.45,23.76-53.86,17.28-71.92,6.42,9.63,10.17,21.23,10.17,33.72Z"/>
    <path class="cls-20" d="m587.25,149.84c4.82-3.28,11.75-.25,9.53,7.04-.96,3.17-4.02,4.44-5.97,9.1-2.21,5.29-4.36,19.65-9.54,11.28-3.99-6.43-2.88-21.39,5.98-27.42Z"/>
    <ellipse class="cls-20" cx="601.02" cy="140.69" rx="8.33" ry="4.42" transform="translate(49.38 417.67) rotate(-39.84)"/>
    <ellipse class="cls-16" cx="620.29" cy="267.98" rx="8.52" ry="1.82"/>
    <ellipse class="cls-16" cx="619.85" cy="277.77" rx="8.08" ry="1.82"/>
    <ellipse class="cls-16" cx="619.81" cy="286.91" rx="7.15" ry="1.82"/>
    <path class="cls-12" d="m615.21,292.67l.71.03c-.46-.01-.71-.03-.71-.03Z"/>
    <ellipse class="cls-16" cx="622.86" cy="297.22" rx="4.1" ry="3.48"/>
    <path class="cls-5" d="m622.86,263.29c.11-18.17-.1-36.37-1.57-54.47-.75-7.45-1.35-15.02-3.9-22.04-.53-1.31-1.22-2.65-2.09-3.31-.44-.32-.78-.4-1.23-.3-1.91.46-2.91,2.17-3.53,4.06-4.03,11.34,6.43,45.95,22.63,35.24,9.88-7.38,16.87-27.38,16.61-39.49-.17-3.36-1.25-6.37-4.65-3.44-1.42,1.49-2.19,3.48-2.86,5.48-2.58,8.58-3.15,17.7-3.68,26.65-.8,18.15-.35,36.33.46,54.49-1.77-18.12-2.79-36.34-2.37-54.56.46-9.26.51-26.74,6.62-33.85,1.43-1.39,3.19-2.27,5.33-1.87,3.06.81,3.66,4.5,3.85,6.94.25,9.42-2.68,18.49-6.46,26.97-15.66,33.09-36.81,14.01-38.73-13.87-.1-4.65-.07-10.3,3.8-13.75,5.94-4.49,8.64,3.83,9.58,8.34,2.47,12.02,2.73,24.2,2.97,36.39.09,12.14-.12,24.28-.76,36.39h0Z"/>
  </g>
  <g id="shadow">
    <g class="cls-3">
      <path class="cls-17" d="m576.6,853.82c-13.5-12.88-66.72-21.88-124.16-20.82-3.51.06-6.98.17-10.41.3-28.5-13.81-73.05-22.44-119.88-22.21-44.77.21-87.29,8.44-114.48,21.85-3.16.02-6.35.06-9.57.12-93.35,1.72-185.82,18.19-196.99,38.44-12.48,22.62,80.69,36.57,193.83,29.6,3.47-.21,6.89-.45,10.28-.69,32.78,17.56,90.94,27.38,153.79,22.11,52.66-4.42,89.46-18.27,105.52-35.02,9.24-.06,18.64-.36,28.07-.94,63.91-3.94,98.51-18.88,83.98-32.74Z"/>
    </g>
  </g>
  <path id="R_leg" data-name="R leg" class="cls-10" d="m525.55,847.6c-25.69,39.23-143.29,14.68-175.81-23.26-.08-.09-.16-.19-.25-.28-4.78-5.39-10.81-7.6-13.21-13.31-32.5-77.29,180.27-145.44,191.28-209.79.3-1.75,4.26,6.54,8.29,21.92,1.08,4.12,2.17,8.76,3.19,13.85,10.12,50.22,33.46,139.17-13.49,210.87Z"/>
  <path id="R_leg_shadow" data-name="R leg shadow" class="cls-4" d="m525.55,847.6c-29.03,44.36-143.29,14.68-175.81-23.26-.08-.09-.16-.19-.25-.28l186.36-201.18c1.08,4.12,2.17,8.76,3.19,13.85,10.12,50.22,33.44,139.16-13.49,210.87Z"/>
  <path id="R_Hand" data-name="R Hand" class="cls-10" d="m661.8,371.59h-.01c-7.46,12.41-25.5,24.67-52.41,33.23-21.49,6.84-95.03,54.42-95.03,54.42,0,0-9.2,2.03-22.43,4.17-32.96,5.32-90.92,11.31-93.97-11.81-.41-3.04.15-6.71,1.87-11.08,22.36-56.52,138.01-98.52,138.1-98.77,0,0,55.25-27.57,102.66-9.27,24.02,9.27,30.13,24.3,21.22,39.11Z"/>
  <path id="R_hand_shadow" data-name="R hand shadow" class="cls-4" d="m661.79,371.59c-7.46,12.41-25.5,24.67-52.41,33.23-21.49,6.84-95.03,54.42-95.03,54.42,0,0-9.2,2.03-22.43,4.17l-4.6-50.69s61.11,14.19,174.47-41.13Z"/>
  <path id="R_hand_thumb" data-name="R hand thumb" class="cls-10" d="m583.66,329.38s7.31-28.5,21.71-23.99c14.4,4.51,7.18,23.02,7.18,23.02l-28.9.97Z"/>
  <path class="cls-13" d="m610.39,308.08c6.77,6.53,7.49,17.39,4.3,25.86,0,0-.89-2.42-.89-2.42,1.55.97,2.68,1.97,3.91,3.22,8.07,8.14,8.54,21.2,3.62,31.08,1.88-9.83,1.09-21.05-6.43-28.32-1.3-1.34-2.95-2.5-4.53-3.38,3.36-8.29,3.91-17.81.01-26.05h0Z"/>
  <path id="body" class="cls-10" d="m363.6,837.51c-128.44,26.5-255.15-54.06-282.09-152.94-9.5-34.84-6.61-71.95,12.96-107.46.29-.53.59-1.07.88-1.61,4.62-8.35,9.95-17.89,15.21-27.9,4.56-8.68,9.06-17.71,12.99-26.62,9.64-21.91,15.76-43.06,10.57-56.4-1.54-3.97-2.71-13.03-6.72-22.27-3.21-7.41-8.24-14.93-16.76-20.06-24.28-14.6-23.38-51.83-17.49-89.17,10.06-63.71,48.08-77.71,93-84.45,41.03-6.15,74.16-12.99,94.65-19.11,20.48-6.11,45.17-30.53,103.59,1.75,20.23,11.17,43.65,45.7,64.9,84.36,4.84,8.81,9.57,17.83,14.13,26.84,12.73,25.18,24.08,50.26,32.68,70.25,8.76,20.4,14.66,35.51,16.21,40.06,44.83,131.26,53.33,343.05-148.71,384.73Z"/>
  <path id="body_shadow" data-name="body shadow" class="cls-4" d="m363.6,837.51c-128.44,26.5-255.15-54.06-282.09-152.94,25.23-3.31,82.55,3.19,150.94,24.75,342.11,107.84,282.43-222.68,263.65-296.6,8.76,20.4,14.66,35.51,16.21,40.06,44.83,131.26,53.33,343.05-148.71,384.73Z"/>
  <path id="L_leg" data-name="L leg" class="cls-10" d="m258.13,736.6c11.56,56.7-41.82,125.12-112.06,133.17-34.11,3.91-42.08-11.64-47.91-18.74-4.52-5.52-8.17-12.32-11.06-20-17.63-46.48-8.39-124.69-4.79-138.37.24-.95,1.32-9.68,2.03-10.39,28.32-28.48,83.86-33.88,125.18-13.65,22.89,11.19,41.43,32.79,48.6,67.98Z"/>
  <path id="L_leg_shadow" data-name="L leg shadow" class="cls-4" d="m256.64,730.48c15.17,55.84-31.72,123.99-101.11,138.15-33.64,6.86-45.64-4.06-51.91-10.78-4.86-5.22-10.65-13.37-14.03-20.85,18.64,15.86,61.04,27.14,114.19-171.23,15.02-9.27,43.45,30.07,52.86,64.72Z"/>
  <path id="L_hand" data-name="L hand" class="cls-10" d="m200.78,539.72s-.05.04-.08.06c-13.55,10.23-13.38-15.34-48.08-8.17-15.54,3.21-29.48,9.43-42.06,15.99-16.1,8.39-29.96,17.32-42.03,21.18-4.22,1.35-9.87,1.91-15.95,1.52-16.08-1.07-35.07-8.86-38.01-26.46-.35-2.06-.48-4.25-.35-6.59.4-7.38,3.3-16.16,9.69-26.5,18.86-30.53,59.97-55.62,103.49-68.44,19.93-5.88,40.37-9.18,59.41-9.26,44.53-.16,33.7,91.62,13.97,106.67Z"/>
  <g id="face">
    <path class="cls-6" d="m319.62,339.33c12.5,25.98,5.43,54.5-17.79,63.42-25.2,9.69-57.84-7.61-70.41-38.19-12.05-29.33.45-56.65,25.64-61.71,23.34-4.69,50.51,11.42,62.56,36.47Z"/>
    <path class="cls-17" d="m264.98,359.63c-7.53-17.37-.45-34.25,14.96-37.91,14.67-3.49,32.03,6.28,39.53,22,7.67,16.07,2.69,33.35-11.92,38.49-15.37,5.4-34.84-4.77-42.56-22.57Z"/>
    <path class="cls-6" d="m270.18,346.75c-1.45-5.62,1.05-10.66,5.49-11.29,4.36-.62,9.01,3.24,10.48,8.65,1.49,5.46-.79,10.59-5.16,11.42-4.46.84-9.35-3.1-10.81-8.77Z"/>
    <path class="cls-2" d="m213.02,319.79c-7.12-9.91-8.9-23.7-3.27-34.89,10.04-20.18,37.58-21.32,54.43-9.68-3.89.4-7.57.52-11.16.85-9.46.78-20.28,2.66-27.34,8.27-10.82,8.24-12.07,22.59-12.66,35.45h0Z"/>
    <path class="cls-6" d="m374.84,323.53c12.2,23.18,35.82,37.39,51.42,31.39,14.63-5.62,16.1-26.94,4.4-47.37-11.36-19.84-31.95-33.17-47.07-30.13-16.07,3.23-20.56,23.66-8.75,46.1Z"/>
    <path class="cls-17" d="m389.98,325.16c-7.32-13.82-4.39-26.91,6.02-29.39,10-2.38,23.51,5.93,30.65,18.68,7.27,12.99,5.6,26.4-4.21,29.84-10.22,3.59-25-5.03-32.46-19.13Z"/>
    <path class="cls-6" d="m391.41,316.64c-2.01-4.72-.71-9.02,2.85-9.62,3.5-.59,7.91,2.62,9.91,7.2,2.02,4.61.87,8.96-2.62,9.7-3.55.74-8.12-2.53-10.14-7.28Z"/>
    <path class="cls-2" d="m407.48,274.64c-9.19-5.55-16.81-11.61-25.94-15.94-4.1-1.92-8.12-3.34-12.36-3.75-4.92-.54-9.54.56-14.53,2.39,4.55-13.19,20.85-15.46,32.14-9.7,10.77,5.32,18.77,15.18,20.7,27h0Z"/>
    <g>
      <g class="cls-1">
        <path class="cls-17" d="m406.32,453.36c-18.25,10.66-42.12-4-46.72-6.59-15.85-8.91-38.31-43.33-38.31-43.33,78.33,11.44,94.34-8.89,94.34-8.89-13.88,33.87-1.72,54.36-9.31,58.8Z"/>
        <path class="cls-17" d="m415.63,394.56c-13.88,33.87-1.72,54.36-9.31,58.8-4.76,2.78-9.9,3.84-14.98,3.84-14.41,0-28.34-8.51-31.74-10.42-15.85-8.91-38.31-43.33-38.31-43.33,17.2,2.51,31.4,3.49,43.08,3.49,41.51,0,51.26-12.38,51.26-12.38m0-2.61c-.77,0-1.52.34-2.03.97-.2.23-10.22,11.41-49.23,11.41-12.59,0-26.96-1.17-42.7-3.47-.13-.02-.25-.03-.38-.03-.88,0-1.72.45-2.2,1.21-.55.87-.55,1.97.01,2.84.93,1.43,22.99,35.06,39.22,44.18.2.11.45.25.73.41,4.47,2.56,18.08,10.35,32.29,10.35,6.05,0,11.53-1.41,16.3-4.2,4.52-2.64,4.22-8.23,3.81-15.97-.52-9.87-1.31-24.79,6.6-44.09.49-1.21.02-2.59-1.1-3.25-.41-.24-.87-.36-1.31-.36h0Zm0,5.23h0,0Z"/>
      </g>
      <path class="cls-14" d="m406.32,453.36c-14.23,7.51-39.05-1.26-53.8-11.95,31.54-24.42,51.35,8.61,53.8,11.95Z"/>
    </g>
    <ellipse class="cls-10" cx="276.26" cy="386.59" rx="53.55" ry="21.7"/>
    <path class="cls-10" d="m462.02,345.39c-2.83,2.89-6.87,6.21-11.96,10.45-15.16,12.63-33.68,15.4-41.35,6.19-7.67-9.21-2.79-25.93,13.57-39.54,8.36-6.95,17.66-6.92,25.61-3.94,4.84,8.81,9.57,17.83,14.13,26.84Z"/>
  </g>
  <path id="L_hand_shaodw" data-name="L hand shaodw" class="cls-4" d="m200.83,543.42c-25.11,9.98-73.42,32.17-105.48,32.08,4.62-8.35,9.95-17.89,15.21-27.9-16.1,8.39-29.96,17.32-42.03,21.18-4.22,1.35-9.87,1.91-15.95,1.52-1.4-.54-2.67-.99-4.07-1.28-21.53-4.5-31.64-15.66-33.94-25.18-.58-2.34-.67-4.58-.35-6.59.03-.23.07-.46.12-.68,2.38-11.3-7.85,12.96,43.66-.66,8.15-2.15,5.68,18.43,38.07-.98,10.02-6,19.15-10.57,27.48-13.95,55.02-22.36,74.57,7.19,77.15,18.8.36,1.63.85,3.35.13,3.64Z"/>
  <g id="overlapping_lines" data-name="overlapping lines">
    <path class="cls-13" d="m79.83,463.66c3.53-1.63,8.47-4.75,11.91-6.71,3.96-2.28,8-4.45,12.13-6.48,24.47-11.93,54.49-19.34,80.57-8.21-4.57-.56-9.06-1.01-13.55-1.1-22.51-.55-44.2,5.93-65.13,13.73-7.57,2.62-18.09,7.4-25.93,8.78h0Z"/>
    <path class="cls-13" d="m44.17,567.71c13.37,2.7,26.4-1.31,38.18-7.31,17.78-8.99,35.25-21.02,55.09-26.11,20.3-5.54,41.55-2.97,60.12,6.74-6.53-1.81-13.02-3.46-19.61-4.32-57.6-8.76-92.41,46.66-133.78,31.01h0Z"/>
    <path class="cls-13" d="m538.3,618.24c-2.7,65.08-16.83,131.77-73.48,171.34,52.47-49.9,60.6-103.87,73.48-171.34h0Z"/>
    <path class="cls-13" d="m474.43,364.89c13.7,20.42,24.18,42.83,32.98,65.74,8.63,22.98,15.55,46.74,18.85,71.1-15.44-45.74-33.04-92.49-51.83-136.84h0Z"/>
    <path class="cls-13" d="m228.47,828.07c51.62,16.43,119.47,18.54,171.03,1.36,8.93-3.19,17.55-7.11,25.64-12.28-6.38,5.67-13.79,10.18-21.51,13.94-49.96,23.31-125.83,21.15-175.16-3.02h0Z"/>
    <path class="cls-13" d="m77.6,742.87c-1.82-23.59,1.08-57.52,11.46-78.87-4.84,26.22-6.61,52.65-11.46,78.87h0Z"/>
    <path class="cls-13" d="m237.88,815.18c2.47-5.58,5.48-10.87,7.66-16.55,7.15-17.24,9.61-36.13,7.38-54.59-2.84-23.31-12.17-44.8-22.99-65.58,7.77,9.47,14.31,20.01,19.41,31.3,16.37,36.02,13.96,74.34-11.47,105.42h0Z"/>
    <path class="cls-13" d="m63.29,517.24c-2.05,8.51-6.75,24.09.06,30.76,2.81,2.38,6.48,2.69,10.26,1.98,8.87-1.84,16.4-7.66,21.38-15.5-2.49,9.42-10.84,17.37-20.47,19.76-3.88.95-8.37.85-11.91-1.21-12.18-7.43-5.2-26.39.68-35.78h0Z"/>
  </g>
</svg>