<?xml version="1.0" encoding="utf-8"?>
<!-- Generator: Adobe Illustrator 27.7.0, SVG Export Plug-In . SVG Version: 6.00 Build 0)  -->
<svg version="1.1" id="Confident" xmlns="http://www.w3.org/2000/svg" xmlns:xlink="http://www.w3.org/1999/xlink" x="0px" y="0px"
	 viewBox="0 0 758.19 712.34" style="enable-background:new 0 0 758.19 712.34;" xml:space="preserve">
<style type="text/css">
	.st0{fill:#FF7B00;}
	.st1{fill:#E56E02;}
	.st2{fill:#894406;}
	.st3{opacity:0.15;}
	.st4{fill:#3A200A;}
	.st5{opacity:0.1;}
	.st6{opacity:0.2;}
	.st7{fill:#B25000;}
	.st8{fill:#FFFFFF;}
	.st9{opacity:0.6;fill:#3A200A;}
	.st10{opacity:0.6;}
</style>
<g>
	<path class="st0" d="M569.07,216.41c0,0,11.68,94.62,11.68,94.63c-0.06-0.43,7.14-4.09,7.65-4.4c6.85-4.14,13.52-8.58,20.03-13.24
		c21.11-15.11,40.66-32.56,57.64-52.22c21.51-24.9,38.86-53.65,48.5-85.22c4.01-13.15,7.17-26.6,8.7-40.27
		c1.4-12.54,2.65-27.44-2.24-39.4c-3.33-8.14-10.35-13.69-18.02-17.58c-4.23-2.15-9.06-4.08-14.05-5.08
		c-15.26-3.05-20.19-3.35-28.72,3.53s-9.13,27.83-9.13,27.83s-8.75-10.86-21.71-8.94c-12.96,1.92-5.39,28.23-5.39,28.23l3.1,10.72
		c0,0,5.17,26.22-3.08,37.14S564.91,198.55,569.07,216.41z"/>
	<path class="st1" d="M577.48,234.63c1.51,26.75,35.49,23.15,60,6.61c23.35-15.77,77.77-89.61,87.06-144.98
		c0,0,0.02,19.51-6.01,45.5c-7.41,31.92-26.32,67.8-42.59,89.89c-16.28,22.09-40.32,50.07-95.17,79.4L577.48,234.63z"/>
	<path class="st2" d="M687.69,132.83c1.16-10.8-5.52-28.74-26.66-32.33c0,0-5.08-17.43-21.28-23.81c0,0,14.44,10.49,16.62,30.26
		C656.36,106.95,675.05,105.65,687.69,132.83z"/>
</g>
<g id="confident">
</g>
<g class="st3">
	<g>
		<path class="st4" d="M506.45,625.19c-2.66,0-5.31,0.01-7.95,0.04c-28.78-15.04-77.86-24.95-133.57-24.95
			c-55.71,0-104.78,9.91-133.57,24.95c-85.14,0.77-152.95,14.39-152.95,31.08s67.81,30.31,152.95,31.08
			c28.78,15.04,77.86,24.95,133.57,24.95c55.71,0,104.79-9.91,133.57-24.95c2.63,0.02,5.28,0.04,7.95,0.04
			c88.65,0,160.52-13.93,160.52-31.12S595.1,625.19,506.45,625.19z"/>
	</g>
</g>
<g>
	<path class="st0" d="M81.8,399.1c0,0.46,0.02,0.93,0.04,1.39c0.89,14.7,15.82,28.59,41.25,28.59c16.13,0,33.58-12.55,33.27-28.36
		c-0.2-10.62-8.92-20.81-30.17-20.81c-2.16,0-4.24,0.04-6.27,0.13C96.08,381.1,81.8,388.23,81.8,399.1z"/>
	<path class="st5" d="M82.85,399.21c1.99,11.5,27.8,9.43,35.69-1.82c3.25-4.63,4.3-10.78,1.39-17.34
		C96.08,381.1,81.02,388.26,82.85,399.21z"/>
	<path class="st0" d="M179.39,214.39c0,0-37.72,27.08-74.97,43.71c-56.66,25.28-42.27,60.62-26.08,84.19
		c18.01,26.22,55.72,85.62,77.83,67.97c17.4-13.89,17.79-37.94,17.79-37.94L179.39,214.39z"/>
	<path class="st6" d="M185.5,249.4c0,4.36-8.8-2.81-8.8-2.81c-16.21,19.4-41.23,28.43-41.23,37.1c0,8.67,36.35,83.78,36.35,83.78
		S185.5,245.04,185.5,249.4z"/>
</g>
<path class="st0" d="M631.56,608.28c-6.53-63.58-24.72-118.85-38.53-197.72c-2.59-17.88-6.66-40.6-9.11-61.32
	c-7.29-61.59-7.88-179.76-10.35-244.39c-1.05-27.51-4.64-51.3-8.4-69.56c-4.63-22.41-25.14-37.53-47.38-35.01l-85.85,9.74
	c-19.63,2.23-39.34,3.34-59.06,3.34c-19.72,0-39.43-1.11-59.06-3.34l-85.85-9.74c-22.24-2.52-42.75,12.6-47.38,35.01
	c-3.77,18.26-7.35,42.05-8.4,69.56c-2.47,64.63-3.06,182.8-10.35,244.39c-13.07,110.45-39.6,180.78-47.64,259.04
	c-1.99,19.38,10.31,37.23,28.82,41.72c27.26,6.62,72.35,11.28,133.91-3.31c14.03-3.32,26.14-6.14,36.58-8.54
	c19.55-4.48,39.45-6.72,59.36-6.73c19.9,0.01,39.81,2.25,59.36,6.73c10.44,2.39,22.55,5.21,36.58,8.54
	c61.56,14.59,106.65,9.93,133.91,3.31C621.25,645.51,633.55,627.66,631.56,608.28z"/>
<path class="st5" d="M582.98,340.5c-6.4-63.47-7.04-174.02-9.41-235.74c-1.05-27.51-4.71-53.74-8.4-69.56
	c-11.17-47.84-60.84-31.92-61.32-33.43c55.05,31.88,52.78,105.33,54.27,142.14c1.33,32.79-17.25,107.99-21.21,160.11
	c-4.58,60.26,52.02,147.47-30.45,227.54c-101,98.05-336.05,71.41-368.08-50.71l0,0c-10.09,45.17-19.81,85.11-24.15,127.35
	c-1.99,19.38,10.31,37.23,28.82,41.72c27.26,6.62,72.35,11.28,133.91-3.31c14.03-3.32,26.14-6.14,36.58-8.54
	c19.55-4.48,39.45-6.72,59.36-6.73c19.9,0.01,39.81,2.25,59.36,6.73c10.44,2.39,22.55,5.21,36.58,8.54
	c61.56,14.59,106.65,9.93,133.91,3.31c18.52-4.5,30.82-22.35,28.82-41.72c-6.73-65.51-38.53-197.72-38.53-197.72
	S583.28,343.49,582.98,340.5z"/>
<g>
	<g>
		<path class="st7" d="M238.14,602.32c20.43,11.12,43.16,17.23,65.93,21.33c22.66,3.94,45.84,6.19,68.82,6.47
			c34.5-0.69,69.36-4.6,102.52-14.48c9.68-3.01,19.28-6.63,28.32-11.28c1.29-0.69,2.59-1.37,3.91-2.04
			c-18.13,15.42-41.16,24.24-64.01,30.18c-23.16,5.82-46.85,8.8-70.74,9.15c-17.97-0.24-35.68-2.06-53.3-5.34
			C290.69,630.71,260.98,621.51,238.14,602.32L238.14,602.32z"/>
	</g>
</g>
<g id="eyes_00000157282473247857418450000005989930645093895310_">
	<g>
		<ellipse class="st8" cx="287.57" cy="162.15" rx="50.06" ry="51.26"/>
		<g>
			<ellipse class="st8" cx="458.21" cy="162.15" rx="50.06" ry="51.26"/>
			<g>
				<ellipse class="st4" cx="448.48" cy="167.08" rx="31.12" ry="31.86"/>
				<ellipse class="st8" cx="438.24" cy="158.77" rx="10.52" ry="10.77"/>
			</g>
			<g>
				<ellipse class="st4" cx="298.45" cy="167.08" rx="31.12" ry="31.86"/>
				<ellipse class="st8" cx="288.21" cy="158.77" rx="10.52" ry="10.77"/>
			</g>
		</g>
	</g>
	<path class="st9" d="M310.16,246.4c4.41,4.95,10.32,10.64,15.02,13.94c13.18,9.27,27.46,16.48,43.41,19.42
		c7.73,1.43,15.66,1.87,23.49,1.09c3.9-0.39,7.78-1.08,11.57-2.09c2.12-0.57,9.37-1.84,10.54-3.75
		c-12.41,20.35-31.39,38.51-57.2,34.02c-13.57-2.36-23.75-10.66-31.73-21.43C316.43,275.66,313.97,260.44,310.16,246.4z"/>
</g>
<g id="eye-brows">
	<g class="st10">
		<path class="st4" d="M295.54,76.54c-16.46-4.55-31.06-4.7-45.98,3.9c-10.99,6.2-29.1,21.78-27.66,35.81
			c-1.8-1.54-3.05-3.82-3.77-6.25c-3.97-17.06,9.55-34.96,23.9-42.97C259.55,56.78,283.45,59.41,295.54,76.54L295.54,76.54z"/>
	</g>
	<g class="st10">
		<path class="st4" d="M450.25,76.54c12.1-17.13,35.98-19.76,53.51-9.51c14.36,8.01,27.87,25.91,23.9,42.97
			c-0.73,2.44-1.98,4.72-3.77,6.25c1.46-13.99-16.68-29.63-27.66-35.81C481.31,71.84,466.7,71.99,450.25,76.54L450.25,76.54z"/>
	</g>
</g>
<g>
	<path class="st7" d="M151.11,319.15c17.77,25.1,29.62,74.41,2.13,96.64c1.32-2.36,2.58-4.62,3.67-7.04
		c1.76-4.14,3.2-8.74,3.95-13.19C165.13,370.64,157.15,343.42,151.11,319.15L151.11,319.15z"/>
</g>
<path class="st7" d="M593.19,303.93c0,0-16.58-13.66-17.9-44.91c0,0-1.41,20.32-1.98,40.7s10.61,49.51,10.61,49.51l-1.35-23.98
	C581.47,316.65,585.67,308.24,593.19,303.93L593.19,303.93z"/>
</svg>
